<mxfile host="app.diagrams.net" modified="2024-03-15T11:54:01.039Z" agent="Mozilla/5.0 (Macintosh; Intel Mac OS X 10_15_7) AppleWebKit/537.36 (KHTML, like Gecko) Chrome/122.0.0.0 Safari/537.36" version="24.0.7" etag="ZWveXrANUI5hS3_bIkvN" type="github">
  <diagram name="PÃ¡gina-1" id="E7h0zv6GEESjahKsUAGr">
    <mxGraphModel>
      <root>
        <mxCell id="0" />
        <mxCell id="1" parent="0" />
      </root>
    </mxGraphModel>
  </diagram>
</mxfile>
